<svg xmlns="http://www.w3.org/2000/svg" width="54" height="54"><g fill="none" fill-rule="nonzero"><path fill="#E74444" d="M12.405 2.919H53.27v3.649H12.405z"/><path fill="#CE3536" d="M12.405 6.568H53.27v3.648H12.405z"/><path fill="#FDD14B" d="M19.703 1.095c1.007 0 1.824.807 1.824 1.802v28.846h-3.649V2.897c0-.995.817-1.802 1.825-1.802ZM21.527 6.568h3.649v28.459h-3.649zM32.473 6.568h3.649v28.459h-3.649zM27.365 1.095c1.007 0 1.824.807 1.824 1.802v28.846h-3.648V2.897c0-.995.816-1.802 1.824-1.802Z"/><path fill="#FDD14B" d="M30.649 1.095c1.007 0 1.824.807 1.824 1.802v28.846h-3.649V2.897c0-.995.817-1.802 1.825-1.802Z"/><path fill="#93573D" d="M20.797 48.892h12.406v2.846c0 1.048-.794 1.897-1.772 1.897h-8.862c-.978 0-1.772-.85-1.772-1.897v-2.846Z"/><path fill="#CE3536" d="m.902 20.04 1.485-1.01a3.616 3.616 0 0 1 5.004.93l10.17 14.742-4.455 3.03L.902 20.04Z"/><g fill="#FDD14B" transform="translate(5.473 24.446)"><ellipse cx="9.046" cy="8.939" rx="9.046" ry="8.939"/><ellipse cx="9.046" cy="8.939" rx="5.427" ry="5.364"/><ellipse cx="34.373" cy="8.939" rx="9.046" ry="8.939"/><ellipse cx="34.373" cy="8.939" rx="5.427" ry="5.364"/><ellipse cx="21.709" cy="8.939" rx="9.046" ry="8.939"/><ellipse cx="21.709" cy="8.939" rx="5.427" ry="5.364"/></g><path fill="#AB6647" d="M3.649 31.743h47.067v3.576c0 7.9-6.484 14.303-14.482 14.303H18.13c-7.998 0-14.482-6.404-14.482-14.303v-3.576Z"/><path fill="#E74444" d="M3.649 31.743h47.067v3.649H3.649z"/><path fill="#000" d="M53.1 1.788H33.147A2.692 2.692 0 0 0 31.27.084a2.712 2.712 0 0 0-2.47.6 2.714 2.714 0 0 0-2.47-.6 2.694 2.694 0 0 0-1.876 1.704h-2.108A2.7 2.7 0 0 0 19.8 0a2.7 2.7 0 0 0-2.546 1.788H12.6c-.497 0-.9.4-.9.894v7.151c0 .494.403.894.9.894h4.5v12.886a10 10 0 0 0-2.7-.371 9.891 9.891 0 0 0-3.067.488l-3.201-4.647c-1.406-2.034-4.204-2.555-6.255-1.164l-1.485 1.01a.89.89 0 0 0-.235 1.242l5.596 8.12a9.694 9.694 0 0 0-.877 2.102H3.6c-.497 0-.9.4-.9.894v3.576c0 8.38 6.863 15.196 15.3 15.196h1.8v.894a2.694 2.694 0 0 0 2.7 2.682h9a2.694 2.694 0 0 0 2.7-2.682v-.894H36c8.436 0 15.3-6.817 15.3-15.196v-3.576a.897.897 0 0 0-.9-.894h-1.276c-1.493-5.223-6.964-8.258-12.224-6.78V10.727h16.2c.497 0 .9-.4.9-.894V2.682a.897.897 0 0 0-.9-.894ZM33.3 5.364V3.576h18.9v1.788H33.3Zm3.086 24.585a4.52 4.52 0 0 1 6.814.445h-6.676c-.043-.15-.089-.299-.138-.445Zm-3.694.444A6.304 6.304 0 0 0 27 26.818a6.304 6.304 0 0 0-5.693 3.575h-1.944C20.507 27.18 23.567 25.03 27 25.03s6.493 2.149 7.637 5.363h-1.945Zm-2.092 0h-7.2a4.51 4.51 0 0 1 3.6-1.788 4.51 4.51 0 0 1 3.6 1.788Zm-13.124 0H10.8a4.504 4.504 0 0 1 3.304-1.778 4.513 4.513 0 0 1 3.51 1.335c-.05.147-.096.294-.138.443ZM24.3 5.363h-1.8V3.577h1.8v1.788Zm0 1.788V23.62a9.94 9.94 0 0 0-1.8.704V7.15h1.8Zm6.3-5.363a.9.9 0 0 1 .637.261.888.888 0 0 1 .263.633v21.641a9.94 9.94 0 0 0-1.8-.704V2.682c0-.494.403-.894.9-.894Zm-3.6 0a.9.9 0 0 1 .637.261.888.888 0 0 1 .263.633v20.601a9.923 9.923 0 0 0-1.8 0V2.682c0-.494.403-.894.9-.894ZM13.5 3.576h3.6v1.788h-3.6V3.576Zm0 5.363V7.151h3.6V8.94h-3.6Zm5.4-6.257c0-.494.403-.894.9-.894s.9.4.9.894v22.81a9.874 9.874 0 0 0-1.8-1.178V2.682ZM2.15 19.899l.743-.505a2.715 2.715 0 0 1 3.753.699l3.006 4.362a9.98 9.98 0 0 0-2.8 2.267l-4.701-6.823Zm12.25 5.13a8.08 8.08 0 0 1 5.019 1.733 9.829 9.829 0 0 0-1.033 1.472 6.327 6.327 0 0 0-5.37-1.264 6.287 6.287 0 0 0-4.309 3.423H6.762c1.152-3.21 4.208-5.355 7.638-5.363Zm18 25.924a.898.898 0 0 1-.9.894h-9c-.497 0-.9-.4-.9-.894v-.894h10.8v.894Zm3.6-2.681H18c-7.103-.009-12.988-5.477-13.47-12.515h44.94c-.483 7.038-6.367 12.506-13.47 12.515Zm13.5-14.303h-45V32.18h45v1.788Zm-2.263-3.576h-1.945a6.292 6.292 0 0 0-4.31-3.423 6.332 6.332 0 0 0-5.37 1.26 9.828 9.828 0 0 0-1.031-1.469A8.08 8.08 0 0 1 39.6 25.03c3.43.008 6.486 2.154 7.637 5.363ZM33.3 25.492V7.152h1.8v17.163a9.874 9.874 0 0 0-1.8 1.177Zm3.6-16.553V7.151h15.3V8.94H36.9Z"/></g></svg>
